<?xml version="1.0" encoding="UTF-8"?>
<svg id="Calque_2" xmlns="http://www.w3.org/2000/svg" version="1.1" xmlns:xlink="http://www.w3.org/1999/xlink" viewBox="0 0 1235 284.3">
  <!-- Generator: Adobe Illustrator 29.2.1, SVG Export Plug-In . SVG Version: 2.1.0 Build 116)  -->
  <defs>
    <style>
      .st0 {
        fill: url(#Dégradé_sans_nom_4);
      }

      .st1 {
        fill: #287aea;
      }

      .st2 {
        fill: #2c2e30;
      }

      .st3 {
        fill: #fff;
        isolation: isolate;
        opacity: .1;
      }
    </style>
    <linearGradient id="Dégradé_sans_nom_4" data-name="Dégradé sans nom 4" x1="40.1" y1="763" x2="236.8" y2="647.3" gradientTransform="translate(0 -558)" gradientUnits="userSpaceOnUse">
      <stop offset="0" stop-color="#bfcfec"/>
      <stop offset="1" stop-color="#fff"/>
    </linearGradient>
  </defs>
  <path class="st1" d="M284.3,86.8v113.3c0,46.5-37.7,84.2-84.2,84.2h-113.3C38.9,284.3,0,245.4,0,197.5v-107.5C0,40.3,40.3,0,90,0h107.5C221.8,0,243.7,10,259.5,26c9.6,9.8,16.9,21.9,21,35.3,1.2,3.9,2.1,8,2.8,12.1.7,4.3,1,8.8,1,13.3h0Z"/>
  <path class="st3" d="M284.3,86.8v41.8l-89.4,88.5-18.3,18.2c-9.7,9.6-25.3,9.5-34.8-.2l-18.2-18.3-9.9-10h0l-18.2-18.4-1-1c-4.8-4.9-7.1-11.2-7.1-17.6s2.5-13,7.5-17.9c9.9-9.8,25.9-9.7,35.7.2l25.2,25.5c2.1,2.1,5.4,2.1,7.4,0l117.4-116.2c1.2,3.9,2.1,7.9,2.8,12.1.7,4.3,1,8.8,1,13.3h0Z"/>
  <path class="st0" d="M283.2,73.5l-116.5,115.3-18.3,18.2c-9.6,9.5-25.2,9.5-34.8-.1h0l-18.2-18.4-1-1-27.9-28.2c-4.9-4.9-7.3-11.3-7.3-17.7s2.5-13,7.5-17.9c9.9-9.8,25.9-9.7,35.7.2l25.2,25.5c2.1,2.1,5.4,2.1,7.4,0l124.4-123.1c9.6,9.8,16.9,21.9,21,35.3,1.2,3.9,2.1,7.9,2.8,12.1h0v-.2Z"/>
  <g>
    <path class="st2" d="M468.3,48.2v28h-50.2v150.4h-29.3V76.3h-50.5v-28h130Z"/>
    <path class="st2" d="M566.2,99.2h27.5v127.5h-27.5v-18.4c-10.4,14.5-25.2,21.7-44.6,21.7s-32.5-6.5-44.9-19.5c-12.4-13-18.6-28.9-18.6-47.6s6.2-34.8,18.6-47.7c12.4-12.9,27.4-19.4,44.9-19.4s34.3,7.1,44.6,21.4v-18.1ZM497.1,192.2c7.6,7.7,17.2,11.6,28.8,11.6s21.2-3.9,28.8-11.6c7.6-7.7,11.5-17.5,11.5-29.2s-3.8-21.5-11.5-29.2c-7.6-7.7-17.3-11.6-28.8-11.6s-21.2,3.9-28.8,11.6c-7.6,7.7-11.5,17.5-11.5,29.2s3.8,21.5,11.5,29.2Z"/>
    <path class="st2" d="M649.9,134.4c0,4.3,2.3,7.6,7,10.1,4.7,2.5,10.4,4.6,17.1,6.4,6.7,1.8,13.5,3.9,20.3,6.2,6.8,2.4,12.5,6.4,17.2,12.1,4.7,5.7,7,12.9,7,21.5s-4.7,21.8-14.2,28.8c-9.4,7-21.3,10.5-35.6,10.5s-23.4-2.6-32.4-7.9c-9-5.3-15.6-12.6-19.6-21.9l23.7-13.8c4.4,12.2,13.9,18.4,28.3,18.4s21.7-4.8,21.7-14.3-2.3-7.4-7-9.9c-4.7-2.5-10.4-4.7-17.1-6.5-6.7-1.8-13.5-3.9-20.3-6.2-6.8-2.4-12.5-6.3-17.2-11.9-4.7-5.5-7-12.5-7-21s4.5-21.2,13.4-28.3,20-10.7,33.3-10.7,19.9,2.3,28.2,7c8.2,4.7,14.6,11.2,19,19.5l-23.2,13c-4.4-9.7-12.4-14.5-24-14.5s-9.7,1.1-13.3,3.4-5.4,5.7-5.4,10.1Z"/>
    <path class="st2" d="M853.9,226.7h-32.9l-52.3-58.9v58.9h-27.5V48.2h27.5v107.3l49.5-56.3h33.7l-56.1,62.5,58.1,65Z"/>
    <path class="st2" d="M898.6,74.9c-3.5,3.5-7.6,5.2-12.4,5.2s-8.9-1.7-12.4-5.2c-3.5-3.5-5.2-7.6-5.2-12.4s1.7-8.9,5.1-12.4c3.4-3.5,7.6-5.2,12.5-5.2s9.1,1.7,12.5,5.2c3.4,3.5,5.1,7.6,5.1,12.4s-1.7,8.9-5.2,12.4ZM872.5,226.7v-127.5h27.5v127.5h-27.5Z"/>
    <path class="st2" d="M1038.2,76.3h-75.2v50h72.7v28h-72.7v72.4h-29.3V48.2h104.5v28Z"/>
    <path class="st2" d="M1149.9,99.2h29.3l-49,131.6c-12.2,33-33,48.6-62.2,46.9v-25.8c8.7.5,15.6-1.3,20.9-5.5,5.3-4.2,9.6-10.7,13-19.5l1.3-2.5-54.1-125.2h30.1l38,92.6,32.6-92.6Z"/>
  </g>
</svg>