<?xml version="1.0" encoding="UTF-8"?>
<svg id="Calque_2" xmlns="http://www.w3.org/2000/svg" version="1.1" xmlns:xlink="http://www.w3.org/1999/xlink" viewBox="0 0 284.3 284.3">
  <!-- Generator: Adobe Illustrator 29.2.1, SVG Export Plug-In . SVG Version: 2.1.0 Build 116)  -->
  <defs>
    <style>
      .st0 {
        fill: url(#Dégradé_sans_nom);
      }

      .st1 {
        fill: #287aea;
      }

      .st2 {
        fill: #fff;
        isolation: isolate;
        opacity: .1;
      }
    </style>
    <linearGradient id="Dégradé_sans_nom" data-name="Dégradé sans nom" x1="40.1" y1="79" x2="236.8" y2="194.7" gradientTransform="translate(0 283.9) scale(1 -1)" gradientUnits="userSpaceOnUse">
      <stop offset="0" stop-color="#bfcfec"/>
      <stop offset="1" stop-color="#fff"/>
    </linearGradient>
  </defs>
  <path class="st1" d="M284.3,86.8v113.3c0,46.5-37.7,84.2-84.2,84.2h-113.3c-47.9,0-86.8-38.9-86.8-86.8v-107.5C0,40.3,40.3,0,90,0h107.5C221.8,0,243.7,10,259.5,26c9.6,9.8,16.9,21.9,21,35.3,1.2,3.9,2.1,8,2.8,12.1.7,4.3,1,8.8,1,13.3Z"/>
  <path class="st2" d="M284.3,86.8v41.8l-89.4,88.5-18.3,18.2c-9.7,9.6-25.3,9.5-34.8-.2l-18.2-18.3-9.9-10h0c0,0-18.2-18.4-18.2-18.4l-1-1c-4.8-4.9-7.1-11.2-7.1-17.6s2.5-13,7.5-17.9c9.9-9.8,25.9-9.7,35.7.2l25.2,25.5c2.1,2.1,5.4,2.1,7.4,0l117.4-116.2c1.2,3.9,2.1,7.9,2.8,12.1.7,4.3,1,8.8,1,13.3h0Z"/>
  <path class="st0" d="M283.2,73.5l-116.5,115.3-18.3,18.2c-9.6,9.5-25.2,9.5-34.8-.1,0,0,0,0,0,0l-18.2-18.4-1-1-27.9-28.2c-4.9-4.9-7.3-11.3-7.3-17.7s2.5-13,7.5-17.9c9.9-9.8,25.9-9.7,35.7.2l25.2,25.5c2.1,2.1,5.4,2.1,7.4,0l124.4-123.1c9.6,9.8,16.9,21.9,21,35.3,1.2,3.9,2.1,7.9,2.8,12.1h0Z"/>
</svg>